<svg xmlns="http://www.w3.org/2000/svg" version="1" viewBox="0 0 260 260"><path d="M105.6 27.5c-.3.9-1.9 1.5-4.1 1.5-2.2 0-3.8.6-4.1 1.5-.4.8-1.6 1.5-2.8 1.5C92.1 32 81 42.7 81 45.1c0 .8-2.5 3.9-5.5 6.9-3 3-5.5 6.2-5.5 7 0 .9-1.3 2.9-3 4.5-1.6 1.6-3 3.3-3 3.9 0 .6-3.7 4.7-8.1 9.2-9 9.1-9.4 10.9-2.3 10.1 4.6-.5 6.9.9 4 2.5-2.3 1.3-2.4 22.9-.1 24.8.8.7 1.5 2 1.5 3s.7 2 1.5 2.4c1.1.4 1.5 2.3 1.5 7.9 0 4.5.5 7.8 1.2 8.5.7.7 1.3 2 1.3 2.9 0 1 1.1 2 2.5 2.3l2.5.6.5 21.4.5 21.5H73c1.6 0 2.6-.7 3-2.1.7-2.9 5.8-8.7 7-7.9.5.3.7 1.8.4 3.3-.4 2.1.1 3.3 2.5 5.6 3.4 3.2 4.4 8.6 1.6 8.6-.8 0-1.5-.5-1.5-1 0-3.1-4.8.1-13.1 8.5l-9.4 9.5h-6.1c-4.8 0-6.3.4-6.8 1.6-.3.9-1.2 1.4-2 1.1-1.6-.6-34.1 31.6-33.3 33 .3.5-.3 1.7-1.4 2.6-1.1 1-1.7 2.1-1.5 2.6.3.5-.1 1.4-.9 2.1-.8.7-1.5 1.9-1.5 2.8 0 .8-.7 2.4-1.7 3.4-1.6 1.7.3 1.8 58 1.8 39.1 0 59.7-.3 59.7-1 0-.6-.4-1-.9-1s-.8-3.5-.6-7.9c.3-6.4 0-8.1-1.2-8.5-1.1-.4-1.4-1.6-1.1-3.7.4-2.3-.1-3.5-2.1-5.3-1.4-1.2-7.8-7.5-14.1-13.9L94.6 207l8.9-9c8.2-8.2 9.1-8.9 10.3-7.3 1.3 1.7 1.4 1.7 2.4-.1 1.1-1.9 1.1-1.9 2.5-.1 1.2 1.8 1.4 1.8 3 .2 1.5-1.5 1.7-1.5 2.9.1s1.4 1.6 2.7-.2c1.4-1.9 1.4-1.9 2.5-.1.9 1.6 1.2 1.7 2.6.5 1.3-1 2-1 2.8-.2 1.7 1.7 2.8 1.5 2.8-.7 0-2.1-3.2-3.7-5.1-2.5-.7.4-1.8-.1-2.6-1.2-1.2-1.7-1.4-1.7-3-.1-1.5 1.5-1.7 1.5-2.9-.1s-1.4-1.6-2.6.1c-1.3 1.7-1.5 1.7-2.7.3-.8-.9-2.8-1.6-4.6-1.6-2 0-3.5-.6-3.9-1.5-.3-.8-1.3-1.5-2.3-1.5-1 0-3.7-2.2-6-4.8-11.5-12.7-13.1-15.2-9.8-15.2.8 0 1.5-.5 1.5-1 0-.6-.7-1-1.5-1-2 0-1.9-1.7.2-2.8 1.4-.8 1.2-1.4-1.8-4-3-2.7-3.2-3.1-1.6-3.8 1.2-.4 2.3 0 3.2 1.2 1.3 1.7 1.4 1.7 1.5.2 0-.9-.6-1.8-1.2-2.1-1-.4-1-.7 0-1.8 1.6-1.8 1.5-2.9-.3-2.9-1.9 0-1.9-1.4 0-3 1.4-1.2 1.4-1.5 0-3-1.9-2.1-1.9-3 0-3 .8 0 1.5-.5 1.5-1 0-.6-.7-1-1.5-1-1.9 0-1.9-1.4 0-3 1.4-1.2 1.4-1.5 0-3-1.8-1.9-1.9-3-.5-3 .6 0 2-.9 3.2-2 1.9-1.7 1.9-2 .5-2.6-2.4-.9-2.1-2.7.5-3.9 2.7-1.2 3.7-4.5 1.4-4.5-1.9 0-2.1-1.1-.4-2.8 1.6-1.6 2.8-1.5 2.8.3 0 .8.5 1.5 1 1.5.6 0 1-1.3 1-2.8 0-5 4.4-6.9 8.2-3.5 1 .9 2.1 1.4 2.4 1 .7-.7-3.2-4.7-4.6-4.7-1.4 0-1.3-1.3.2-2.8 1.6-1.6 2.8-1.5 2.8.3 0 2 1 1.9 3.6-.6 2.4-2.2 5.4-1.8 3.5.5-.8 1-.5 1.8.9 3.1 2.2 2 2.6 5.1.8 5.8-.7.2-1 .8-.5 1.2.4.5 1.3.3 1.9-.3 1.8-1.8 3.6-1.4 4.9 1 .9 1.6.9 2.3 0 2.6-.6.2-1.1 1.1-1.1 2 .1 1.5.2 1.5 1.5-.2 1.5-2 3.5-1.4 3.5 1.1 0 1 .6 1.4 1.9 1 1.5-.3 3.7 1.2 8 5.6 6.3 6.3 6.9 7.2 4.9 8-.7.2-1 .7-.6 1.1.3.4 1.8 0 3.3-1 2.6-1.7 2.8-1.7 4-.1.7.9 1.8 1.7 2.5 1.7s3.2 1.6 5.6 3.5c2.4 2 4.9 3.3 5.7 2.9 1.7-.6 3.2 1.2 1.7 2.1-.5.3-1 1.1-1 1.8 0 .8.3.8 1.2-.1.7-.7 2-1.2 3-1.2 1.5 0 1.7.3.8 1.9-.5 1.1-1 4.3-1 7.1 0 3.2-.6 5.7-1.5 6.6-.8.9-1.5 2.4-1.5 3.4 0 1.1-1.1 4-2.5 6.6-1.4 2.6-2.5 5.3-2.5 6 0 .7-.9 1.8-2 2.4-1.5.8-1.9 1.7-1.4 3.5.6 2.5-1 3.6-1.9 1.2-.3-.8-1.4-.3-3.4 1.5-1.6 1.6-3.7 2.8-4.6 2.8-2.1 0-2.2 1.6-.2 2.3.8.4 2.4-.6 3.9-2.3 2.8-3.4 5.1-4 4.3-1.1-.7 2.8 1.7 5.8 6.6 7.9 2.3 1 5.7 3.5 7.5 5.6 2.9 3.3 3.1 4.1 2.5 7.9-.3 2.3-1.3 5.3-2.2 6.7-1.4 2.2-19.5 20.6-23.5 23.8-1.3 1.1-1.6 3.6-1.6 14.2v13h56c54.1 0 56-.1 56-1.9 0-1-.6-2.4-1.4-3.1-.8-.6-1.3-1.7-1-2.4.3-.7-.2-1.9-1.1-2.6-.8-.7-1.5-2-1.5-2.9 0-1.9-25.2-27.1-27.2-27.1-.7-.1-3.1-1.2-5.3-2.5-2.2-1.4-4.7-2.7-5.5-3.1-.8-.3-2.3-1-3.2-1.5-1-.5-2.3-.9-2.9-.9-.5 0-2.2-1.4-3.6-3-1.3-1.7-3.3-3-4.2-3-1.9 0-6.1-4-6.1-5.7 0-2.7-5.1-7.1-8.6-7.5-3.1-.4-4 0-6.2 2.8-1.4 1.8-3 3-3.5 2.7-.4-.3-.1-1.4.9-2.4 1.5-1.6 1.5-2.1.3-3.7-2.1-2.6-3.9-6-3.9-7.4.1-.8.6-.6 1.4.5 1.5 2 3.2 2.2 3.9.4.3-.8 1.4-.3 3.4 1.5 2.3 2.2 3.9 2.8 7.5 2.8 5.1 0 6.6-1.1 4.3-3-.8-.7-1.5-1.8-1.5-2.4 0-.7-1.4-2.5-3-4.1-1.7-1.6-2.8-3.5-2.6-4.1.2-.6-.9-2.4-2.5-4-2.8-2.7-2.9-3.1-2.9-12.5 0-7.4.4-10 1.5-10.9.8-.7 1.5-2.1 1.5-3.1 0-1.2.7-1.9 1.9-1.9 1 0 2.4-.7 3.1-1.5.9-1.1 3.3-1.5 8.6-1.5 5.8 0 7.4-.3 7.4-1.4 0-.8-.4-1.8-1-2.1-.5-.3-1-1.9-1-3.5 0-1.7-.7-3.3-1.7-3.9-1.7-.9-1.7-1 0-2.8 2.1-2.4 2.1-3.7.2-5.3-1.2-1-1.5-3.9-1.5-14s-.3-13-1.5-14c-.8-.7-1.5-1.8-1.5-2.5s.7-1.8 1.5-2.5c2-1.6 1.9-4.9-.1-5.7-1.1-.4-1.4-1.4-1-3.3.3-2-.1-3.3-1.4-4.5-1-.9-1.6-2.2-1.4-2.9.3-.7-.2-1.9-1.1-2.6-.8-.7-1.5-2-1.5-3s-.7-2-1.5-2.4c-.8-.3-1.5-1.4-1.5-2.4s-1.3-3.1-2.9-4.6c-1.6-1.6-2.7-3.4-2.5-4.1.3-.6-.2-1.8-1.1-2.5-.8-.7-1.5-2-1.5-3s-.7-2.3-1.5-3c-.8-.7-1.5-1.8-1.5-2.4 0-1.5-4.2-5.6-5.7-5.6-.6 0-1.6-.7-2.3-1.5-.7-.9-1.9-1.4-2.6-1.1-.7.3-1.8-.2-2.4-1-.7-.8-2-1.4-3-1.4s-2.3-.7-3-1.5c-.7-.8-2.1-1.5-3.2-1.5-1 0-2.1-.7-2.4-1.5-.5-1.3-4.2-1.5-24.4-1.5s-23.9.2-24.4 1.5zM78 130.2c0 3 1 4.4 3.8 5.2 2.6.8 2.9 2.4.6 3.3-3.4 1.3-9.3-7.5-6.7-10 1.3-1.3 2.3-.7 2.3 1.5zM95 201c0 .5-.4 1-1 1-.5 0-1-.5-1-1 0-.6.5-1 1-1 .6 0 1 .4 1 1z"/><path d="M114 101c0 .5.5 1 1 1 .6 0 1-.5 1-1 0-.6-.4-1-1-1-.5 0-1 .4-1 1zm3 3c0 .5.5 1 1.1 1 .5 0 .7-.5.4-1-.3-.6-.8-1-1.1-1-.2 0-.4.4-.4 1zm-4 3.5c-1.7 2.1-.5 3.1 1.5 1.2.8-.9 1.5-1.8 1.5-2.1 0-1.1-1.8-.6-3 .9zm4 2.1c0 .8.5 1.2 1 .9.6-.4.8-1.1.5-1.6-.9-1.4-1.5-1.1-1.5.7z"/><path d="M120.1 111.7c-2.2 2.6-2.4 2.6-3.7.8-.8-1-1.6-1.6-2-1.3-.7.7 1.8 4.8 2.9 4.8.8 0 6.7-5.7 6.7-6.5 0-1.2-1.7-.2-3.9 2.2zm2.5 5.2c-.4.7-.5 1.5-.2 1.8.9.9 1.9-.4 1.4-1.8-.4-1.1-.6-1.1-1.2 0zm5.4.7c0 .8.5 1.2 1 .9.6-.3 1-1 1-1.6 0-.5-.4-.9-1-.9-.5 0-1 .7-1 1.6zm-31 .4c0 .5.5 1 1 1 .6 0 1-.5 1-1 0-.6-.4-1-1-1-.5 0-1 .4-1 1zm36 0c0 .5.5 1 1 1 .6 0 1-.5 1-1 0-.6-.4-1-1-1-.5 0-1 .4-1 1zm-16.4 1.9c-.4.5-.2 1.2.3 1.5.5.4 1.2.2 1.5-.3.4-.5.2-1.2-.3-1.5-.5-.4-1.2-.2-1.5.3zm19.4 1.2c0 .5.5.7 1 .4.6-.3 1-.8 1-1.1 0-.2-.4-.4-1-.4-.5 0-1 .5-1 1.1zm-39 2.3c0 .8-.5 1.6-1.2 1.8-.8.3-.5 1.2 1 2.8 1.6 1.7 2.2 1.9 2.2.9 0-.8-.5-2-1.1-2.6-.8-.8-.8-1.3 0-1.7 1.4-.9 1.4-2.6.1-2.6-.5 0-1 .6-1 1.4zm25-.4c0 .5.5 1 1 1 .6 0 1-.5 1-1 0-.6-.4-1-1-1-.5 0-1 .4-1 1zm16.5 0c-.3.5-.1 1 .4 1 .6 0 1.1-.5 1.1-1 0-.6-.2-1-.4-1-.3 0-.8.4-1.1 1zm-22.5 3c0 .5.7 1 1.5 1s1.5-.5 1.5-1c0-.6-.7-1-1.5-1s-1.5.4-1.5 1zm25 0c0 .5.5 1 1 1 .6 0 1-.5 1-1 0-.6-.4-1-1-1-.5 0-1 .4-1 1zm-46 5c0 .5.5 1 1 1 .6 0 1-.5 1-1 0-.6-.4-1-1-1-.5 0-1 .4-1 1zm22 0c0 .5.5 1 1 1 .6 0 1-.5 1-1 0-.6-.4-1-1-1-.5 0-1 .4-1 1zm29-.2c0 1.1 4.1 4.4 4.8 3.8.3-.3-.3-1.5-1.3-2.6-1.8-2-3.5-2.6-3.5-1.2zm-46.9 1.8c-1.2 1.4-1.1 1.9.7 3.7 1.2 1.1 2.5 1.8 2.8 1.4.4-.4-.1-1.4-1.2-2.3-1.3-1.1-1.5-1.7-.6-2 1.3-.6 1.7-2.4.5-2.4-.5.1-1.4.8-2.2 1.6zm12.9-.5c0 .5.5.7 1 .4.6-.3 1-.8 1-1.1 0-.2-.4-.4-1-.4-.5 0-1 .5-1 1.1zM95 137c0 .5.5 1 1 1 .6 0 1-.5 1-1 0-.6-.4-1-1-1-.5 0-1 .4-1 1zm16 0c0 .5.5 1 1 1 .6 0 1-.5 1-1 0-.6-.4-1-1-1-.5 0-1 .4-1 1zm6 0c0 .5.5 1 1 1 .6 0 1-.5 1-1 0-.6-.4-1-1-1-.5 0-1 .4-1 1zm41-.3c.1 1.1 2.6 4.3 3.4 4.3 1.1 0 .6-2.1-.8-3.6-1.6-1.5-2.6-1.8-2.6-.7zM95 142c0 .5.5 1 1 1 .6 0 1-.5 1-1 0-.6-.4-1-1-1-.5 0-1 .4-1 1zm5.5-.1c-.3.5-.1 1.2.5 1.6.5.3 1-.1 1-.9 0-1.8-.6-2.1-1.5-.7zm5.5.7c0 .8.5 1.2 1 .9.6-.3 1-1 1-1.6 0-.5-.4-.9-1-.9-.5 0-1 .7-1 1.6zm19.3 2.1c-1.9.7-1.6 3 .6 5.2 1.9 1.9 9.1 2.6 9.1 1 0-1.2-6.3-6.9-7.5-6.8-.5 0-1.6.3-2.2.6zM95 148c0 .5.5 1 1 1 .6 0 1-.5 1-1 0-.6-.4-1-1-1-.5 0-1 .4-1 1zm0 5c0 .5.5 1 1 1 .6 0 1-.5 1-1 0-.6-.4-1-1-1-.5 0-1 .4-1 1zm5.6 4.9c-.4.5-.2 1.2.3 1.5.5.4 1.2.2 1.5-.3.4-.5.2-1.2-.3-1.5-.5-.4-1.2-.2-1.5.3zm22 0c-.4.7-.5 1.5-.2 1.8.9.9 1.9-.4 1.4-1.8-.4-1.1-.6-1.1-1.2 0zM95 159.1c0 .5.5.7 1 .4.6-.3 1-.8 1-1.1 0-.2-.4-.4-1-.4-.5 0-1 .5-1 1.1zm32.5 1.9c-.3.5.1 1 .9 1 .9 0 1.6-.5 1.6-1 0-.6-.4-1-.9-1-.6 0-1.3.4-1.6 1zM95 164c0 .5.5 1 1 1 .6 0 1-.5 1-1 0-.6-.4-1-1-1-.5 0-1 .4-1 1zm5 0c0 .5.7 1 1.6 1 .8 0 1.2-.5.9-1-.3-.6-1-1-1.6-1-.5 0-.9.4-.9 1zm22 0c0 .5.5 1 1 1 .6 0 1-.5 1-1 0-.6-.4-1-1-1-.5 0-1 .4-1 1zm24.5 0c.3.5 1 1 1.6 1 .5 0 .9-.5.9-1 0-.6-.7-1-1.6-1-.8 0-1.2.4-.9 1zm-19 1.9c-1.5 2.5.8 3.2 8.6 2.7 7.9-.5 10.3-1.1 9.5-2.5-.8-1.2-17.3-1.4-18.1-.2zm-27 3c-.3.5-.1 1.2.5 1.6.5.3 1-.1 1-.9 0-1.8-.6-2.1-1.5-.7zm5.5.7c0 .8.5 1.2 1 .9.6-.3 1-1 1-1.6 0-.5-.4-.9-1-.9-.5 0-1 .7-1 1.6zm16.5-.7c-.3.5-.1 1.2.5 1.6.5.3 1-.1 1-.9 0-1.8-.6-2.1-1.5-.7zm7.1 4c-1.1 1.2-1.7 2.3-1.5 2.5.8.8 4.1-2.3 3.7-3.4-.2-.7-1.1-.3-2.2.9zm5.1.3c-1 1.1-1.6 2.2-1.3 2.5.7.7 4.6-2.6 4.6-3.9 0-1.3-1.4-.8-3.3 1.4zM106 175c0 .5.5 1 1 1 .6 0 1-.5 1-1 0-.6-.4-1-1-1-.5 0-1 .4-1 1zm16 0c0 .5.5 1 1 1 .6 0 1-.5 1-1 0-.6-.4-1-1-1-.5 0-1 .4-1 1zm-10.3 4.7c-.4.3-.7 1.1-.7 1.7 0 .6.5.5 1.2-.2.6-.6.9-1.4.7-1.7-.3-.3-.9-.2-1.2.2zm5.3.3c0 .5.5 1 1.1 1 .5 0 .7-.5.4-1-.3-.6-.8-1-1.1-1-.2 0-.4.4-.4 1zm5.5 0c-.3.5-.1 1 .4 1 .6 0 1.1-.5 1.1-1 0-.6-.2-1-.4-1-.3 0-.8.4-1.1 1zm5.5.6c0 .8.5 1.2 1 .9.6-.4.8-1.1.5-1.6-.9-1.4-1.5-1.1-1.5.7zm10.9 5c-.9 1.1-.4 1.4 2.9 1.4 2.7 0 4.2.5 4.6 1.6.3.8 1.1 1.2 1.7.9 1.5-1-2-4.1-5.4-4.7-1.6-.3-3.1 0-3.8.8zm13.6 2.3c-.3.5-.1 1.2.5 1.6.5.3 1-.1 1-.9 0-1.8-.6-2.1-1.5-.7zm-12.4 4.7c-1.3 1.3-1.8 2.4-1.2 2.4 1.5 0 5.2-3.8 4.3-4.4-.4-.2-1.8.6-3.1 2zm17.5-1.7c-.4.5-.2 1.2.3 1.5.5.4 1.2.2 1.5-.3.4-.5.2-1.2-.3-1.5-.5-.4-1.2-.2-1.5.3zM111 194c0 .5.5 1 1 1 .6 0 1-.5 1-1 0-.6-.4-1-1-1-.5 0-1 .4-1 1zm6 0c0 .5.5 1 1 1 .6 0 1-.5 1-1 0-.6-.4-1-1-1-.5 0-1 .4-1 1zm5 0c0 .5.5 1 1 1 .6 0 1-.5 1-1 0-.6-.4-1-1-1-.5 0-1 .4-1 1zm6 0c0 .5.5 1 1 1 .6 0 1-.5 1-1 0-.6-.4-1-1-1-.5 0-1 .4-1 1zm5 0c0 .5.5 1 1 1 .6 0 1-.5 1-1 0-.6-.4-1-1-1-.5 0-1 .4-1 1zm14 0c0 .5.5 1 1 1 .6 0 1-.5 1-1 0-.6-.4-1-1-1-.5 0-1 .4-1 1zm5 0c0 .5.5 1 1 1 .6 0 1-.5 1-1 0-.6-.4-1-1-1-.5 0-1 .4-1 1zm11 0c0 .5.5 1 1 1 .6 0 1-.5 1-1 0-.6-.4-1-1-1-.5 0-1 .4-1 1zm-54 3.1c0 .5.5.7 1 .4.6-.3 1-.8 1-1.1 0-.2-.4-.4-1-.4-.5 0-1 .5-1 1.1zm5-.1c0 .5.5 1 1 1 .6 0 1-.5 1-1 0-.6-.4-1-1-1-.5 0-1 .4-1 1zm5.5 0c.4.6 1.1.8 1.6.5 1.4-.9 1.1-1.5-.7-1.5-.8 0-1.2.5-.9 1zm5.5 0c0 .5.5 1 1 1 .6 0 1-.5 1-1 0-.6-.4-1-1-1-.5 0-1 .4-1 1zm5 0c0 .5.5 1 1 1 .6 0 1-.5 1-1 0-.6-.4-1-1-1-.5 0-1 .4-1 1zm6 .1c0 .5.5.7 1 .4.6-.3 1-.8 1-1.1 0-.2-.4-.4-1-.4-.5 0-1 .5-1 1.1zm5.5-.1c.3.5.8 1 1.1 1 .2 0 .4-.5.4-1 0-.6-.5-1-1.1-1-.5 0-.7.4-.4 1zm-35.5 2.6c0 .8.5 1.2 1 .9.6-.4.8-1.1.5-1.6-.9-1.4-1.5-1.1-1.5.7zm5.5-.7c-.3.5-.1 1.2.5 1.6.5.3 1-.1 1-.9 0-1.8-.6-2.1-1.5-.7zm5.5.7c0 .8.5 1.2 1 .9.6-.4.8-1.1.5-1.6-.9-1.4-1.5-1.1-1.5.7zm5.5-.7c-.3.5-.1 1.2.5 1.6.5.3 1-.1 1-.9 0-1.8-.6-2.1-1.5-.7zm5.5.7c0 .8.5 1.2 1 .9.6-.4.8-1.1.5-1.6-.9-1.4-1.5-1.1-1.5.7zm4.1.9c-2.5 2.7-1.8 3.3 1.3 1 1-.7 1.6-1.8 1.5-2.4-.2-.6-1.5.1-2.8 1.4zm14.5-1.6c-.4.5-.2 1.2.3 1.5.5.4 1.2.2 1.5-.3.4-.5.2-1.2-.3-1.5-.5-.4-1.2-.2-1.5.3zM103 202c0 .5.5 1 1 1 .6 0 1-.5 1-1 0-.6-.4-1-1-1-.5 0-1 .4-1 1zm5.5 0c-.3.5.1 1 1 1s1.3-.5 1-1c-.3-.6-.8-1-1-1-.2 0-.7.4-1 1zm5.5 0c0 .5.5 1 1 1 .6 0 1-.5 1-1 0-.6-.4-1-1-1-.5 0-1 .4-1 1zm5.5 0c-.3.5.1 1 1 1s1.3-.5 1-1c-.3-.6-.8-1-1-1-.2 0-.7.4-1 1zm5.5 0c0 .5.5 1 1 1 .6 0 1-.5 1-1 0-.6-.4-1-1-1-.5 0-1 .4-1 1zm11 0c0 .5.5 1 1.1 1 .5 0 .7-.5.4-1-.3-.6-.8-1-1.1-1-.2 0-.4.4-.4 1zm5 0c0 .5.7 1 1.6 1 .8 0 1.2-.5.9-1-.3-.6-1-1-1.6-1-.5 0-.9.4-.9 1zm-41 3c0 .5.5 1 1 1 .6 0 1-.5 1-1 0-.6-.4-1-1-1-.5 0-1 .4-1 1zm6 0c0 .5.5 1 1 1 .6 0 1-.5 1-1 0-.6-.4-1-1-1-.5 0-1 .4-1 1zm5 0c0 .5.5 1 1 1 .6 0 1-.5 1-1 0-.6-.4-1-1-1-.5 0-1 .4-1 1zm6 0c0 .5.5 1 1 1 .6 0 1-.5 1-1 0-.6-.4-1-1-1-.5 0-1 .4-1 1zm5 0c0 .5.5 1 1 1 .6 0 1-.5 1-1 0-.6-.4-1-1-1-.5 0-1 .4-1 1zm6-.5c0 .3.9 1.5 2 2.7 2.2 2.4 2.7 1.3.6-1.5-1.3-1.6-2.6-2.3-2.6-1.2zm19 .5c0 .5.5 1 1 1 .6 0 1-.5 1-1 0-.6-.4-1-1-1-.5 0-1 .4-1 1zm-49 3.1c0 .5.5.7 1 .4.6-.3 1-.8 1-1.1 0-.2-.4-.4-1-.4-.5 0-1 .5-1 1.1zm5-.1c0 .5.5 1 1 1 .6 0 1-.5 1-1 0-.6-.4-1-1-1-.5 0-1 .4-1 1zm5.5 0c.4.6 1.1.8 1.6.5 1.4-.9 1.1-1.5-.7-1.5-.8 0-1.2.5-.9 1zm5.5 0c0 .5.5 1 1 1 .6 0 1-.5 1-1 0-.6-.4-1-1-1-.5 0-1 .4-1 1zm5.5 0c.4.6 1.1.8 1.6.5 1.4-.9 1.1-1.5-.7-1.5-.8 0-1.2.5-.9 1zm5.5.1c0 .5.5.7 1 .4.6-.3 1-.8 1-1.1 0-.2-.4-.4-1-.4-.5 0-1 .5-1 1.1zm11-.1c0 .5.5 1 1 1 .6 0 1-.5 1-1 0-.6-.4-1-1-1-.5 0-1 .4-1 1zm5.5 0c.4.6 1.1.8 1.6.5 1.4-.9 1.1-1.5-.7-1.5-.8 0-1.2.5-.9 1zm-41 2c-.3.5-.1 1 .4 1 .6 0 1.1-.5 1.1-1 0-.6-.2-1-.4-1-.3 0-.8.4-1.1 1zm5.5 0c0 .5.5 1 1 1 .6 0 1-.5 1-1 0-.6-.4-1-1-1-.5 0-1 .4-1 1zm5.5 0c-.3.5-.1 1 .4 1 .6 0 1.1-.5 1.1-1 0-.6-.2-1-.4-1-.3 0-.8.4-1.1 1zm5.5 0c0 .5.5 1 1.1 1 .5 0 .7-.5.4-1-.3-.6-.8-1-1.1-1-.2 0-.4.4-.4 1zm5 .4c0 .8-.7 1.7-1.6 2-.9.4-1.4.9-1.1 1.2.8.8 4.7-1.9 4.7-3.3 0-.7-.4-1.3-1-1.3-.5 0-1 .6-1 1.4zm-19 2.6c0 .5.5 1 1 1 .6 0 1-.5 1-1 0-.6-.4-1-1-1-.5 0-1 .4-1 1zm6 0c0 .5.5 1 1 1 .6 0 1-.5 1-1 0-.6-.4-1-1-1-.5 0-1 .4-1 1zm5 0c0 .5.5 1 1 1 .6 0 1-.5 1-1 0-.6-.4-1-1-1-.5 0-1 .4-1 1zm11 0c0 .5.5 1 1 1 .6 0 1-.5 1-1 0-.6-.4-1-1-1-.5 0-1 .4-1 1zm5 0c0 .5.5 1 1 1 .6 0 1-.5 1-1 0-.6-.4-1-1-1-.5 0-1 .4-1 1zm6 0c0 .5.5 1 1 1 .6 0 1-.5 1-1 0-.6-.4-1-1-1-.5 0-1 .4-1 1zm5 0c0 .5.5 1 1 1 .6 0 1-.5 1-1 0-.6-.4-1-1-1-.5 0-1 .4-1 1zm-35 3c0 .5.5 1 1 1 .6 0 1-.5 1-1 0-.6-.4-1-1-1-.5 0-1 .4-1 1zm5 0c0 .5.5 1 1 1 .6 0 1-.5 1-1 0-.6-.4-1-1-1-.5 0-1 .4-1 1zm6-.5c0 1.1 3.4 4.4 4.1 3.9.5-.3-.1-1.4-1.1-2.4-2-2-3-2.5-3-1.5zm-4.4 4.6c-1.5 1.4-1.6 1.9-.5 1.9.8 0 2-.9 2.7-2 1.5-2.5.3-2.5-2.2.1zM125 219c0 .5.5 1 1 1 .6 0 1-.5 1-1 0-.6-.4-1-1-1-.5 0-1 .4-1 1zm5.5 0c.3.5.8 1 1.1 1 .2 0 .4-.5.4-1 0-.6-.5-1-1.1-1-.5 0-.7.4-.4 1zm5.5.1c0 .5.5.7 1 .4.6-.3 1-.8 1-1.1 0-.2-.4-.4-1-.4-.5 0-1 .5-1 1.1zm5.5-.1c.4.6 1.1.8 1.6.5 1.4-.9 1.1-1.5-.7-1.5-.8 0-1.2.5-.9 1zm-27.5 5c0 .5.5 1 1 1 .6 0 1-.5 1-1 0-.6-.4-1-1-1-.5 0-1 .4-1 1zm5.6-.1c-.4.5-.2 1.2.3 1.5.5.4 1.2.2 1.5-.3.4-.5.2-1.2-.3-1.5-.5-.4-1.2-.2-1.5.3zm5.4.7c0 .8.5 1.2 1 .9.6-.3 1-1 1-1.6 0-.5-.4-.9-1-.9-.5 0-1 .7-1 1.6zm5-.7c0 .6.5 1.3 1 1.6.6.3 1-.1 1-.9 0-.9-.4-1.6-1-1.6-.5 0-1 .4-1 .9zm6 .7c0 .8.5 1.2 1 .9.6-.3 1-1 1-1.6 0-.5-.4-.9-1-.9-.5 0-1 .7-1 1.6zm5-.7c0 .6.5 1.3 1 1.6.6.3 1-.1 1-.9 0-.9-.4-1.6-1-1.6-.5 0-1 .4-1 .9zm6 .7c0 .8.5 1.2 1 .9.6-.3 1-1 1-1.6 0-.5-.4-.9-1-.9-.5 0-1 .7-1 1.6zM127.5 252c.3.5.8 1 1.1 1 .2 0 .4-.5.4-1 0-.6-.5-1-1.1-1-.5 0-.7.4-.4 1zm.5 5.1c0 .5.5.7 1 .4.6-.3 1-.8 1-1.1 0-.2-.4-.4-1-.4-.5 0-1 .5-1 1.1zm5-.1c0 .5.5 1 1 1 .6 0 1-.5 1-1 0-.6-.4-1-1-1-.5 0-1 .4-1 1z"/></svg>